<?xml version="1.0" encoding="UTF-8" standalone="no"?>
<svg
   height="512"
   viewBox="0 0 60 60"
   width="512"
   version="1.1"
   id="svg840"
   sodipodi:docname="escape.svg"
   inkscape:version="1.1.1 (c3084ef, 2021-09-22)"
   xmlns:inkscape="http://www.inkscape.org/namespaces/inkscape"
   xmlns:sodipodi="http://sodipodi.sourceforge.net/DTD/sodipodi-0.dtd"
   xmlns="http://www.w3.org/2000/svg"
   xmlns:svg="http://www.w3.org/2000/svg">
  <defs
     id="defs844" />
  <sodipodi:namedview
     id="namedview842"
     pagecolor="#ffffff"
     bordercolor="#666666"
     borderopacity="1.0"
     inkscape:pageshadow="2"
     inkscape:pageopacity="0.0"
     inkscape:pagecheckerboard="0"
     showgrid="false"
     inkscape:zoom="1.4042969"
     inkscape:cx="43.082058"
     inkscape:cy="264.5452"
     inkscape:window-width="1312"
     inkscape:window-height="969"
     inkscape:window-x="0"
     inkscape:window-y="25"
     inkscape:window-maximized="0"
     inkscape:current-layer="svg840" />
  <g
     id="008---Roman-Boat"
     fill="none"
     transform="matrix(-1,0,0,1,60,0)">
    <g
       id="Icons"
       transform="translate(4,3)">
      <path
         id="Shape"
         d="M 44,30 H 10 C 6.1078432,25.981899 3.9526457,20.593905 4,15 3.9526457,9.4060946 6.1078432,4.0181009 10,0 h 34 c -3.892157,4.0181009 -6.047354,9.4060946 -6,15 -0.04735,5.593905 2.107843,10.981899 6,15 z"
         fill="#dfc49c" />
      <path
         id="path825"
         d="M 41,30 H 10 C 6.1078432,25.981899 3.9526457,20.593905 4,15 3.9526457,9.4060946 6.1078432,4.0181009 10,0 h 31 c -3.892157,4.0181009 -6.047354,9.4060946 -6,15 -0.04735,5.593905 2.107843,10.981899 6,15 z"
         fill="#ffe0b2" />
      <path
         id="path827"
         d="m 55,34 v 3 c -0.0028,8.283128 -6.716872,14.99724 -15,15 H 0 C 0,52 7,50 7,46 7,42 3,40 3,40 h 46 c 3.313708,0 6,-2.686292 6,-6 z"
         fill="#91562d" />
      <path
         id="path829"
         d="M 51.805,39.3 C 50.67194,46.60217 44.389549,51.99132 37,52 h 3 c 8.283128,-0.0028 14.99724,-6.716872 15,-15 v -3 c -0.0015,2.221982 -1.230783,4.261224 -3.195,5.3 z"
         fill="#6d4122" />
    </g>
    <g
       id="Stroke"
       fill="#000000">
      <path
         id="path832"
         d="m 53,30 c -0.552285,0 -1,0.447715 -1,1 0,0.552285 0.447715,1 1,1 2.761424,0 5,2.238576 5,5 0,2.761424 -2.238576,5 -5,5 H 52.368 C 49.06,39.235 49,33.062 49,33 48.999794,32.719135 48.881484,32.451303 48.674,32.262 45.008548,28.421239 42.974724,23.309081 43,18 42.976071,12.69166 45.009316,7.5804143 48.673,3.739 48.978026,3.4609252 49.080863,3.0240146 48.931892,2.6390809 48.782921,2.2541472 48.412754,2.0002911 48,2 H 31 V 1 C 31,0.44771525 30.552285,0 30,0 29.447715,0 29,0.44771525 29,1 V 2 C 12.563,2 13.731,1.894 13.327,2.26 9.2135738,6.4596607 6.9375765,12.121775 7,18 6.9593296,23.710003 9.1000713,29.220133 12.985,33.405 12.913,34.817 12.453,39.641 9.632,42 H 7 C 4.2399468,41.996694 2.0033061,39.760053 2,37 2,36.447715 1.5522847,36 1,36 0.44771525,36 0,36.447715 0,37 0.004393,40.751952 2.9661561,43.833244 6.715,43.986 7.4,44.388 10,46.106 10,49 10,51.653 5.47,53.537 3.725,54.039 3.2463826,54.17673 2.9420687,54.645663 3.0112344,55.138877 3.0804001,55.632091 3.5019602,55.999231 4,56 h 15.034 l 2.109,3.515 c 0.28924,0.462205 0.895432,0.607511 1.362784,0.326664 C 22.973136,59.560816 23.129364,58.957347 22.857,58.485 L 21.366,56 h 3.668 l 2.109,3.515 c 0.180613,0.313228 0.516242,0.504564 0.877788,0.50041 0.361546,-0.0042 0.692691,-0.20315 0.86606,-0.520444 C 29.060216,59.177671 29.048804,58.791503 28.857,58.485 L 27.366,56 h 3.668 l 2.109,3.515 c 0.28924,0.462205 0.895432,0.607511 1.362784,0.326664 C 34.973136,59.560816 35.129364,58.957347 34.857,58.485 L 33.366,56 h 3.668 l 2.109,3.515 c 0.180613,0.313228 0.516242,0.504564 0.877788,0.50041 0.361546,-0.0042 0.692691,-0.20315 0.86606,-0.520444 C 41.060217,59.177671 41.048804,58.791503 40.857,58.485 L 39.366,56 h 3.668 l 2.109,3.515 c 0.28924,0.462205 0.895432,0.607511 1.362784,0.326664 0.467352,-0.280848 0.62358,-0.884317 0.351216,-1.356664 l -1.531,-2.552 c 1.118817,-0.08949 2.224996,-0.297315 3.3,-0.62 l 2.521,4.2 c 0.180613,0.313228 0.516242,0.504564 0.877788,0.50041 0.361546,-0.0042 0.692691,-0.20315 0.86606,-0.520444 C 53.064217,59.175671 53.052804,58.789503 52.861,58.483 L 50.523,54.6 C 56.282335,52.025237 59.993014,46.308668 60,40 v -3 c -0.0044,-3.864166 -3.135834,-6.995591 -7,-7 z M 49.66,42 H 31 v -8 h 16.047 c 0.155417,2.849475 1.056473,5.608162 2.613,8 z M 9,18 C 8.9903214,12.820664 10.9216,7.8256695 14.413,4 h 31.353 c -6.356875,8.250926 -6.356875,19.749074 0,28 H 14.413 C 10.9216,28.17433 8.9903214,23.179336 9,18 Z m 5.953,16 H 29 v 8 H 12.34 c 1.556527,-2.391838 2.457583,-5.150525 2.613,-8 z m 34.538,18.875 -2.634,-4.39 c -0.180613,-0.313228 -0.516242,-0.504564 -0.877788,-0.50041 -0.361546,0.0042 -0.692691,0.20315 -0.86606,0.520444 -0.173369,0.317295 -0.161956,0.703463 0.02985,1.009966 l 2.407,4.011 c -1.106233,0.29397 -2.244479,0.450483 -3.389,0.466 l -3.3,-5.507 C 40.57176,48.022795 39.965568,47.877489 39.498216,48.158336 39.030864,48.439184 38.874636,49.042653 39.147,49.515 L 41.834,54 h -3.668 l -3.309,-5.515 c -0.180613,-0.313228 -0.516242,-0.504564 -0.877788,-0.50041 -0.361546,0.0042 -0.692691,0.20315 -0.86606,0.520444 -0.173369,0.317295 -0.161956,0.703463 0.02985,1.009966 L 35.834,54 H 32.166 L 28.857,48.485 C 28.56776,48.022795 27.961568,47.877489 27.494216,48.158336 27.026864,48.439184 26.870636,49.042653 27.143,49.515 L 29.834,54 h -3.668 l -3.309,-5.515 c -0.180613,-0.313228 -0.516242,-0.504564 -0.877788,-0.50041 -0.361546,0.0042 -0.692691,0.20315 -0.86606,0.520444 -0.173369,0.317295 -0.161956,0.703463 0.02985,1.009966 L 23.834,54 H 20.166 L 16.857,48.485 C 16.56776,48.022795 15.961568,47.877489 15.494216,48.158336 15.026864,48.439184 14.870636,49.042653 15.143,49.515 L 17.834,54 H 8.592 C 10.361,52.862 12,51.21 12,49 11.979543,47.124478 11.228716,45.330816 9.907,44 H 53 c 1.801917,-3.26e-4 3.533689,-0.698482 4.832,-1.948 -0.716433,4.809546 -3.872655,8.904953 -8.341,10.823 z" />
      <path
         id="path834"
         d="m 16,8 h 1 C 17.552285,8 18,7.5522847 18,7 18,6.4477152 17.552285,6 17,6 h -1 c -0.552285,0 -1,0.4477152 -1,1 0,0.5522847 0.447715,1 1,1 z" />
      <path
         id="path836"
         d="M 21,8 H 40 C 40.552285,8 41,7.5522847 41,7 41,6.4477152 40.552285,6 40,6 H 21 c -0.552285,0 -1,0.4477152 -1,1 0,0.5522847 0.447715,1 1,1 z" />
    </g>
  </g>
</svg>
