<?xml version="1.0" encoding="UTF-8" standalone="no"?>
<svg
   id="Line_Color_copy"
   enable-background="new 0 0 256 256"
   height="512"
   viewBox="0 0 256 256"
   width="512"
   version="1.1"
   sodipodi:docname="glory.svg"
   inkscape:version="1.1.1 (c3084ef, 2021-09-22)"
   xmlns:inkscape="http://www.inkscape.org/namespaces/inkscape"
   xmlns:sodipodi="http://sodipodi.sourceforge.net/DTD/sodipodi-0.dtd"
   xmlns="http://www.w3.org/2000/svg"
   xmlns:svg="http://www.w3.org/2000/svg">
  <defs
     id="defs1002" />
  <sodipodi:namedview
     id="namedview1000"
     pagecolor="#ffffff"
     bordercolor="#666666"
     borderopacity="1.0"
     inkscape:pageshadow="2"
     inkscape:pageopacity="0.0"
     inkscape:pagecheckerboard="0"
     showgrid="false"
     inkscape:zoom="1.4042969"
     inkscape:cx="251.7274"
     inkscape:cy="264.5452"
     inkscape:window-width="1296"
     inkscape:window-height="969"
     inkscape:window-x="0"
     inkscape:window-y="25"
     inkscape:window-maximized="0"
     inkscape:current-layer="Line_Color_copy" />
  <path
     d="m 158.57703,235.63133 c -3.00663,-0.004 -5.5921,-2.1276 -6.18196,-5.07571 -2.59121,-12.95606 -12.5831,-14.95053 -31.50077,-17.61634 -5.40736,-0.76198 -10.99717,-1.55037 -16.72125,-2.81843 -14.485766,-3.24877 -28.016755,-9.82549 -39.519991,-19.21031 -22.740237,-18.80637 -35.932696,-46.75658 -35.999255,-76.26518 0.03672,-17.362721 4.454865,-34.436259 12.845893,-49.636964 1.662828,-3.064011 5.494563,-4.198958 8.558573,-2.536129 3.06401,1.662827 4.198957,5.494562 2.536128,8.558573 -0.01262,0.0241 -0.02639,0.04705 -0.03902,0.07115 -7.363953,13.33361 -11.243885,28.311686 -11.278313,43.54453 0.04935,25.72047 11.541106,50.08452 31.355042,66.48329 9.975821,8.14086 21.709724,13.84773 34.272163,16.6673 5.2421,1.16249 10.58404,1.9153 15.7504,2.64286 18.51029,2.60843 37.6506,5.30521 42.11694,27.64035 0.68166,3.42206 -1.54119,6.74886 -4.96323,7.42937 -0.40395,0.0815 -0.81708,0.12165 -1.23135,0.12165 z"
     fill="#ffcd52"
     id="path939"
     style="stroke-width:1" />
  <path
     d="m 98.236682,235.63133 c -3.488616,0 -6.317374,-2.82876 -6.317374,-6.31852 0,-0.41428 0.04133,-0.82741 0.121643,-1.2325 4.466344,-22.33514 23.607799,-25.03192 42.118099,-27.64035 5.16635,-0.72756 10.50944,-1.48036 15.75039,-2.64286 12.56359,-2.81957 24.29749,-8.52643 34.27216,-16.66729 19.81509,-16.39877 31.3057,-40.76282 31.35505,-66.48329 -0.0344,-15.232845 -3.91437,-30.209774 -11.27717,-43.544531 -1.71103,-3.037617 -0.63461,-6.886565 2.40301,-8.596443 3.03761,-1.711026 6.88656,-0.634605 8.59644,2.40301 0.0195,0.03328 0.0379,0.0677 0.0562,0.10213 8.39103,15.200705 12.80917,32.274244 12.84589,49.636974 -0.0665,29.50975 -13.25902,57.4588 -35.99925,76.26517 -11.50324,9.38483 -25.03308,15.96154 -39.51885,19.21031 -5.72408,1.26922 -11.31504,2.05645 -16.72124,2.81843 -18.91653,2.66581 -28.90957,4.66029 -31.50078,17.61635 -0.591,2.94695 -3.17763,5.06996 -6.184251,5.07341 z"
     fill="#ffcd52"
     id="path941"
     style="stroke-width:1" />
  <g
     fill="#f29327"
     id="g995"
     transform="matrix(1.1475695,0,0,1.1475695,-18.786719,-19.265665)"
     style="stroke-width:0.871406">
    <path
       d="m 63.379,37.318 c -1.903,1.544 -9.804,8.325 -10.493,14.968 -0.679,6.549 5.224,10.883 5.338,10.867 0.099,0.06 7.234,-1.585 9.201,-7.869 1.996,-6.373 -4.046,-17.966 -4.046,-17.966 z"
       id="path943"
       style="stroke-width:0.871406" />
    <path
       d="m 35.298,61.199 c 0.231,2.305 1.479,12.067 6.366,16.062 4.819,3.939 11.307,1.531 11.354,1.432 0.099,-0.047 2.507,-6.535 -1.432,-11.354 -3.996,-4.886 -16.288,-6.14 -16.288,-6.14 z"
       id="path945"
       style="stroke-width:0.871406" />
    <path
       d="m 78.989,60.704 c 0,0 -1.523,12.562 -6.41,16.557 -3.144,2.588 -7.484,3.17 -11.199,1.503 L 61.155,78.539 C 59.487,74.824 60.07,70.484 62.657,67.34 66.652,62.453 78.989,60.704 78.989,60.704 Z"
       id="path947"
       style="stroke-width:0.871406" />
    <path
       d="m 26.586,83.241 c 0.197,2.483 1.325,13.005 6.491,17.408 5.094,4.341 12.122,1.894 12.174,1.789 0.107,-0.048 2.839,-6.971 -1.29,-12.237 -4.188,-5.342 -17.375,-6.96 -17.375,-6.96 z"
       id="path949"
       style="stroke-width:0.871406" />
    <path
       d="m 73.567,83.668 c 0,0 -1.913,13.472 -7.255,17.659 -3.437,2.713 -8.115,3.244 -12.073,1.37 l -0.237,-0.247 c -1.711,-4.031 -0.99,-8.683 1.861,-12.007 4.403,-5.166 17.704,-6.775 17.704,-6.775 z"
       id="path951"
       style="stroke-width:0.871406" />
    <path
       d="m 20.736,114.321 c 0.843,2.542 4.718,13.241 11.241,16.514 6.432,3.227 13.144,-1.13 13.172,-1.253 0.099,-0.078 1.177,-8.007 -4.485,-12.448 -5.742,-4.504 -19.928,-2.813 -19.928,-2.813 z"
       id="path953"
       style="stroke-width:0.871406" />
    <path
       d="m 69.906,102.723 c 0,0 1.456,14.558 -3.049,20.3 -2.894,3.714 -7.643,5.468 -12.256,4.525 l -0.311,-0.197 c -2.82,-3.77 -3.26,-8.814 -1.134,-13.015 3.273,-6.523 16.75,-11.613 16.75,-11.613 z"
       id="path955"
       style="stroke-width:0.871406" />
    <path
       d="m 23.989,145.138 c 1.297,2.572 7.104,13.341 14.559,15.794 7.35,2.419 13.803,-3.273 13.813,-3.408 0.093,-0.098 -0.009,-8.702 -6.731,-12.534 -6.819,-3.887 -21.641,0.148 -21.641,0.148 z"
       id="path957"
       style="stroke-width:0.871406" />
    <path
       d="m 74.461,125.054 c 0,0 3.842,15.255 -0.044,22.073 -2.493,4.407 -7.268,7.02 -12.323,6.744 l -0.362,-0.161 c -3.594,-3.566 -4.856,-8.861 -3.257,-13.665 2.453,-7.454 15.986,-14.991 15.986,-14.991 z"
       id="path959"
       style="stroke-width:0.871406" />
    <path
       d="m 35.538,168.804 c 1.582,2.662 8.609,13.785 16.787,15.864 8.063,2.05 14.564,-4.534 14.565,-4.679 0.093,-0.112 -0.655,-9.334 -8.149,-12.947 -7.602,-3.664 -23.203,1.762 -23.203,1.762 z"
       id="path961"
       style="stroke-width:0.871406" />
    <path
       d="m 88.193,143.521 c 0,0 5.252,16.08 1.588,23.682 -2.347,4.912 -7.276,8.069 -12.719,8.148 l -0.4,-0.146 c -4.119,-3.559 -5.866,-9.146 -4.507,-14.417 2.079,-8.179 16.038,-17.267 16.038,-17.267 z"
       id="path963"
       style="stroke-width:0.871406" />
    <path
       d="m 57.03,192.113 c 2.165,2.42 11.643,12.445 20.478,12.933 8.711,0.481 14.07,-7.607 14.041,-7.757 0.073,-0.134 -2.559,-9.472 -11.001,-11.676 -8.562,-2.234 -23.518,6.5 -23.518,6.5 z"
       id="path965"
       style="stroke-width:0.871406" />
    <path
       d="m 106.102,155.462 c 0,0 8.652,15.485 6.417,24.047 -1.423,5.528 -5.857,9.772 -11.442,10.953 l -0.441,-0.069 c -4.958,-2.83 -7.883,-8.226 -7.549,-13.925 0.488,-8.836 13.015,-21.006 13.015,-21.006 z"
       id="path967"
       style="stroke-width:0.871406" />
    <path
       d="m 193.152,37.318 c 1.903,1.544 9.804,8.325 10.492,14.968 0.679,6.549 -5.224,10.883 -5.338,10.867 -0.099,0.06 -7.234,-1.585 -9.201,-7.869 -1.995,-6.373 4.047,-17.966 4.047,-17.966 z"
       id="path969"
       style="stroke-width:0.871406" />
    <path
       d="m 221.234,61.199 c -0.231,2.305 -1.479,12.067 -6.366,16.062 -4.818,3.939 -11.307,1.531 -11.354,1.432 -0.099,-0.047 -2.507,-6.535 1.432,-11.354 3.995,-4.886 16.288,-6.14 16.288,-6.14 z"
       id="path971"
       style="stroke-width:0.871406" />
    <path
       d="m 177.542,60.704 c 0,0 1.523,12.562 6.41,16.557 3.144,2.588 7.484,3.17 11.199,1.503 l 0.225,-0.225 c 1.668,-3.715 1.086,-8.055 -1.502,-11.199 -3.995,-4.887 -16.332,-6.636 -16.332,-6.636 z"
       id="path973"
       style="stroke-width:0.871406" />
    <path
       d="m 229.945,83.241 c -0.197,2.483 -1.325,13.005 -6.491,17.408 -5.094,4.341 -12.122,1.894 -12.174,1.789 -0.107,-0.048 -2.839,-6.971 1.29,-12.237 4.188,-5.342 17.375,-6.96 17.375,-6.96 z"
       id="path975"
       style="stroke-width:0.871406" />
    <path
       d="m 182.965,83.668 c 0,0 1.913,13.471 7.255,17.659 3.437,2.713 8.115,3.244 12.073,1.37 l 0.237,-0.247 c 1.711,-4.031 0.99,-8.683 -1.861,-12.007 -4.404,-5.166 -17.704,-6.775 -17.704,-6.775 z"
       id="path977"
       style="stroke-width:0.871406" />
    <path
       d="m 235.795,114.321 c -0.843,2.542 -4.718,13.241 -11.241,16.514 -6.432,3.227 -13.144,-1.13 -13.172,-1.253 -0.099,-0.078 -1.177,-8.007 4.485,-12.448 5.742,-4.504 19.928,-2.813 19.928,-2.813 z"
       id="path979"
       style="stroke-width:0.871406" />
    <path
       d="m 186.625,102.723 c 0,0 -1.456,14.558 3.049,20.3 2.894,3.714 7.643,5.468 12.256,4.525 l 0.311,-0.197 c 2.82,-3.77 3.26,-8.814 1.135,-13.015 -3.274,-6.523 -16.751,-11.613 -16.751,-11.613 z"
       id="path981"
       style="stroke-width:0.871406" />
    <path
       d="m 232.542,145.138 c -1.297,2.572 -7.104,13.341 -14.559,15.794 -7.35,2.419 -13.803,-3.273 -13.813,-3.408 -0.094,-0.098 0.009,-8.702 6.731,-12.534 6.819,-3.887 21.641,0.148 21.641,0.148 z"
       id="path983"
       style="stroke-width:0.871406" />
    <path
       d="m 182.07,125.054 c 0,0 -3.842,15.255 0.044,22.073 2.493,4.407 7.268,7.02 12.323,6.744 l 0.362,-0.161 c 3.594,-3.566 4.856,-8.861 3.257,-13.665 -2.453,-7.454 -15.986,-14.991 -15.986,-14.991 z"
       id="path985"
       style="stroke-width:0.871406" />
    <path
       d="m 220.993,168.804 c -1.582,2.662 -8.609,13.785 -16.787,15.864 -8.063,2.05 -14.564,-4.534 -14.565,-4.679 -0.093,-0.112 0.655,-9.334 8.149,-12.947 7.602,-3.664 23.203,1.762 23.203,1.762 z"
       id="path987"
       style="stroke-width:0.871406" />
    <path
       d="m 168.338,143.521 c 0,0 -5.252,16.08 -1.588,23.682 2.347,4.912 7.276,8.069 12.72,8.148 l 0.4,-0.146 c 4.119,-3.559 5.866,-9.146 4.507,-14.417 -2.08,-8.179 -16.039,-17.267 -16.039,-17.267 z"
       id="path989"
       style="stroke-width:0.871406" />
    <path
       d="m 199.502,192.113 c -2.165,2.42 -11.643,12.445 -20.478,12.933 -8.711,0.481 -14.07,-7.607 -14.041,-7.757 -0.073,-0.134 2.559,-9.472 11.001,-11.676 8.561,-2.234 23.518,6.5 23.518,6.5 z"
       id="path991"
       style="stroke-width:0.871406" />
    <path
       d="m 150.429,155.462 c 0,0 -8.652,15.485 -6.417,24.047 1.423,5.528 5.857,9.772 11.442,10.953 l 0.441,-0.069 c 4.958,-2.83 7.883,-8.226 7.549,-13.925 -0.488,-8.836 -13.015,-21.006 -13.015,-21.006 z"
       id="path993"
       style="stroke-width:0.871406" />
  </g>
  <path
     d="m 240.18414,133.44141 c 8.35201,-4.18978 13.08459,-16.836 14.33658,-20.6115 0.63231,-2.02546 -0.81018,-3.56435 -2.3835,-3.7514 -1.51823,-0.18132 -13.22688,-1.43791 -21.19331,1.71676 -0.11016,-2.94122 -0.34542,-5.87097 -0.70231,-8.78923 3.3945,-0.15034 6.64557,-1.41037 9.25629,-3.58616 6.67427,-5.687353 8.15348,-18.225698 8.44841,-21.932347 0.10787,-2.082839 -1.63643,-3.268279 -3.20861,-3.075486 -1.47003,0.180168 -13.11442,1.748895 -19.55114,6.807381 -0.65755,-1.90267 -1.37019,-3.786979 -2.13677,-5.651779 2.40187,-0.400502 4.65798,-1.417248 6.55033,-2.950402 6.37016,-5.208818 7.9974,-16.905993 8.34397,-20.36821 0.14001,-2.127593 -1.56872,-3.30041 -3.14548,-3.13975 -1.56529,0.159512 -15.43596,1.742011 -20.62183,8.085774 -0.75739,0.926089 -1.38971,1.947426 -1.88086,3.038764 -1.4666,-0.417715 -3.01467,-0.464765 -4.50307,-0.134265 -0.5164,-1.035108 -1.6961,-2.984829 -3.29237,-4.348141 0.52559,0.246728 3.33483,1.597417 4.85766,1.273802 0.79068,-0.106722 2.27333,-1.325442 2.89531,-1.974967 1.89005,-1.821193 6.21066,-6.794759 5.50489,-13.609026 C 216.86668,31.84249 207.51628,23.64081 204.67145,21.3319 c -1.73168,-1.294458 -3.62057,-0.503783 -4.35157,0.90199 -0.76544,1.468889 -7.40757,14.591346 -4.83701,22.799911 0.84461,2.64859 2.41448,5.007993 4.53175,6.810825 -4.66143,-2.111528 -9.59713,-3.556319 -14.66135,-4.289615 -2.27907,-0.1182 -3.44156,1.612335 -3.25107,3.185653 0.1928,1.592826 2.06907,15.710226 8.38874,20.876583 2.64055,2.235466 7.35822,4.365355 12.47063,3.169587 0.34198,0.666739 0.67019,1.340362 0.99495,2.013985 -4.0383,-1.383969 -8.20627,-2.35596 -12.43966,-2.899908 -2.34678,-0.07 -3.40827,1.682337 -3.1845,3.251064 0.20083,1.413805 1.83956,12.071284 6.32311,18.701941 -1.17281,0.276563 -2.03464,1.274949 -2.13793,2.475307 -0.18246,1.828077 -1.62037,18.065047 4.09568,25.353257 3.1845,4.19665 8.47939,6.95311 14.55348,6.52966 -0.44526,2.3158 -0.98576,4.60406 -1.62152,6.86591 -4.94373,-7.89987 -16.52614,-14.51905 -18.00421,-15.34185 -2.08399,-0.99724 -3.79042,0.26968 -4.17831,1.80628 -0.47968,1.90611 -4.54896,18.87177 0.34084,27.451 2.44431,4.46864 6.70983,7.65429 11.68914,8.72842 -1.16938,1.82692 -2.40761,3.60337 -3.71469,5.3316 -2.63482,-10.74813 -17.99045,-20.89379 -19.72671,-22.02415 -1.9153,-1.13265 -3.80076,0.009 -4.29192,1.51364 -0.65296,2.00136 -6.2531,19.82312 -1.67889,29.31237 1.65823,3.58271 4.40781,6.54918 7.85396,8.47365 -2.03464,1.43217 -4.1278,2.76449 -6.2795,3.99929 0.10788,-1.07758 0.13427,-2.16203 0.0791,-3.24304 -0.60363,-10.94207 -14.24708,-24.49602 -15.80089,-26.00507 -1.66513,-1.4838 -3.73075,-0.72527 -4.50421,0.6587 -1.07412,1.92218 -10.41075,19.08294 -7.63479,29.71861 0.72298,2.88613 2.08285,5.57375 3.97978,7.86659 -4.62012,0.94904 -17.46027,2.77597 -19.26883,3.05024 -1.80858,-0.27541 -14.64988,-2.1012 -19.26884,-3.05024 1.89578,-2.29284 3.25564,-4.98046 3.97977,-7.86659 2.77596,-10.63567 -6.56181,-27.79643 -7.63479,-29.71861 -0.77231,-1.38281 -2.83908,-2.1425 -4.5042,-0.6587 -1.553821,1.50905 -15.19727,15.063 -15.800891,26.00507 -0.05508,1.08216 -0.02869,2.16546 0.07919,3.24304 -2.150546,-1.23364 -4.243713,-2.56712 -6.279501,-3.99929 3.447299,-1.92447 6.196875,-4.89094 7.853965,-8.47365 4.574203,-9.48925 -1.025927,-27.31101 -1.678893,-29.31237 -0.491161,-1.5056 -2.376617,-2.64629 -4.291911,-1.51364 -1.736271,1.13036 -17.090752,11.27602 -19.726718,22.02415 -1.307083,-1.72823 -2.54531,-3.50582 -3.714683,-5.3316 4.979304,-1.07413 9.24482,-4.25978 11.689143,-8.72842 4.889793,-8.57923 0.820512,-25.54489 0.340828,-27.451 -0.386732,-1.5366 -2.094315,-2.80352 -4.1783,-1.80628 -1.47807,0.8228 -13.060489,7.44198 -18.004218,15.34185 -0.635753,-2.26185 -1.176259,-4.55011 -1.621517,-6.86591 6.074086,0.42345 11.368972,-2.33301 14.553477,-6.52966 5.716044,-7.28821 4.278139,-23.52518 4.095676,-25.353257 -0.103283,-1.200358 -0.965106,-2.198744 -2.137923,-2.475307 4.483555,-6.630657 6.122283,-17.288136 6.323108,-18.701941 0.222629,-1.568727 -0.837725,-3.321066 -3.184504,-3.251064 -4.233384,0.545096 -8.401357,1.515939 -12.439654,2.899908 0.324762,-0.67477 0.652967,-1.347246 0.994943,-2.013985 5.112421,1.195768 9.83008,-0.932973 12.470638,-3.169587 6.319664,-5.166357 8.195941,-19.283757 8.388732,-20.876583 0.190497,-1.573318 -0.971992,-3.303853 -3.251064,-3.185653 -5.064224,0.733296 -9.999921,2.178087 -14.661348,4.289615 2.116118,-1.802832 3.685993,-4.162235 4.531752,-6.810825 C 63.897872,36.825236 57.25574,23.702779 56.490312,22.23389 55.75931,20.829266 53.869263,20.03859 52.138728,21.3319 49.293904,23.64081 39.943507,31.84249 39.051846,40.441228 c -0.705755,6.814267 3.614843,11.786686 5.504891,13.609026 0.621982,0.648376 2.104642,1.867096 2.895317,1.974967 1.522825,0.323615 4.332076,-1.027074 4.857662,-1.273802 -1.596269,1.363312 -2.775971,3.313033 -3.292377,4.348141 -1.488397,-0.329353 -3.036468,-0.28345 -4.503063,0.134265 -0.492307,-1.09019 -1.124617,-2.111528 -1.880866,-3.038764 -5.185867,-6.343763 -19.056539,-7.926262 -20.621823,-8.085774 -1.576761,-0.16066 -3.285492,1.012157 -3.145488,3.13975 0.346566,3.462217 1.973819,15.159392 8.343977,20.36821 1.891195,1.533154 4.148464,2.5499 6.550327,2.950402 -0.766576,1.8648 -1.47807,3.749109 -2.136774,5.651779 -6.436718,-5.058486 -18.081105,-6.628361 -19.551142,-6.807381 -1.57217,-0.192793 -3.3164755,0.992647 -3.208604,3.075486 0.2949248,3.706649 1.774143,16.244994 8.448407,21.932347 2.609573,2.17579 5.861784,3.43468 9.256295,3.58616 -0.356895,2.91826 -0.592146,5.84801 -0.702313,8.78923 -7.967574,-3.15352 -19.6750779,-1.89808 -21.1933126,-1.71676 -1.5733176,0.18705 -3.0158129,1.72594 -2.3835019,3.7514 1.2519985,3.77666 5.9845748,16.42172 14.3365855,20.6115 2.213661,1.10511 6.296714,2.39383 11.186508,1.2038 0.560014,2.75531 1.231341,5.48309 2.015131,8.17987 -8.814481,-1.69955 -20.3050937,1.28069 -21.835952,1.69725 -1.5285619,0.41657 -2.6290815,1.94055 -1.8085689,4.0601 1.9164404,3.80075 8.9051389,16.44354 18.3714389,19.55804 5.671289,2.03922 12.126368,-0.11247 15.258084,-2.05186 0.393617,0.67477 0.791823,1.34725 1.200358,2.01169 -8.828252,-0.10553 -18.530951,3.1432 -19.957381,3.63894 -1.496431,0.521 -2.497111,2.21711 -1.523972,4.17486 2.327271,3.9178 10.721741,16.90025 21.024621,19.52016 1.480364,0.42115 9.991887,2.28596 18.718006,-5.36718 0.658704,0.59329 1.325442,1.1774 2.000212,1.75234 -5.602434,1.67085 -10.992567,3.98665 -16.061381,6.90033 -1.367903,0.79871 -2.125299,2.73007 -0.691985,4.39059 3.176472,3.55059 14.40085,15.18121 25.480633,15.79286 11.769472,0.47853 18.224551,-9.41925 18.851123,-10.51059 2.707116,1.07413 5.455545,2.02432 8.244133,2.85172 -4.101415,4.57764 -6.828033,10.2191 -7.86773,16.27597 -0.994942,4.97128 2.228573,9.80713 7.198697,10.80208 5.616202,1.23822 10.111232,-3.11336 10.805512,-7.20101 1.81202,-9.06235 7.27903,-11.79242 21.17152,-14.13461 13.89247,2.34333 19.35948,5.07226 21.1715,14.13461 0.69428,4.08879 5.18931,8.43923 10.80552,7.20101 4.97012,-0.99495 8.19364,-5.8308 7.19869,-10.80208 -1.03969,-6.05687 -3.76631,-11.69833 -7.86773,-16.27597 2.78859,-0.8274 5.53702,-1.77759 8.24415,-2.85172 0.62656,1.09134 7.08164,10.98912 18.85111,10.51059 11.07864,-0.61165 22.30301,-12.24227 25.48064,-15.79286 1.43331,-1.65938 0.67706,-3.59073 -0.69199,-4.39059 -5.06881,-2.91368 -10.45895,-5.22948 -16.06138,-6.90033 0.67478,-0.57609 1.34151,-1.1602 2.00022,-1.75234 8.72611,7.65314 17.23763,5.78833 18.718,5.36718 10.30288,-2.61875 18.6962,-15.60236 21.02462,-19.52016 0.97199,-1.95775 -0.0276,-3.65501 -1.52398,-4.17486 -1.42757,-0.49574 -11.13026,-3.74451 -19.95737,-3.63894 0.40854,-0.66559 0.80674,-1.33807 1.20035,-2.01169 3.13172,1.93939 9.58681,4.09108 15.25809,2.05186 9.4663,-3.1145 16.455,-15.75729 18.37144,-19.55804 0.82051,-2.11955 -0.27886,-3.64353 -1.80857,-4.0601 -1.53086,-0.41656 -13.02147,-3.3968 -21.83595,-1.69725 0.78378,-2.69794 1.45511,-5.42456 2.01513,-8.17987 4.88979,1.19003 8.97284,-0.0999 11.18651,-1.2038 z M 227.40481,86.015802 c 2.53383,-3.232704 9.57187,-5.291443 14.38018,-6.285238 -0.86985,5.502596 -2.78514,11.574386 -6.00866,14.321667 -3.25107,2.76679 -8.01233,2.454651 -9.87484,1.908408 -0.51985,-1.996771 -1.2279,-6.460816 1.50332,-9.944837 z m -8.78694,-26.188683 c 2.18497,-2.673837 8.18676,-4.535194 13.08688,-5.461283 -0.9238,4.988484 -2.784,10.394684 -5.73785,12.80917 -3.05024,2.492521 -7.03918,2.003657 -8.9235,1.573318 -0.42919,-1.880866 -0.91805,-5.872113 1.57447,-8.921205 z m -15.49219,9.004977 c -3.08353,1.069535 -6.50328,0.440667 -9.00498,-1.655943 -2.66809,-2.181529 -4.63159,-8.210858 -5.66784,-13.199344 0,0 10.54042,2.568261 13.01573,5.85031 2.09776,2.502849 2.72662,5.921458 1.65709,9.004977 z m -2.16891,-25.512764 c -1.19806,-3.825996 1.02707,-10.621904 2.89417,-15.068735 3.95223,3.76288 7.77134,8.666445 8.19823,12.782776 0.44412,4.29191 -2.44661,7.614124 -3.92468,9.010716 -1.90956,-0.697722 -5.879,-2.607278 -7.16772,-6.724757 z m -6.2118,36.931081 c 4.92997,0.993795 11.88194,2.992861 14.55922,6.134906 2.38006,2.730069 3.13631,6.5159 1.98759,9.950576 -3.38532,1.28872 -7.19985,0.688541 -10.02402,-1.580204 -4.28158,-3.567793 -6.52279,-14.505278 -6.52279,-14.505278 z m 17.32486,24.437497 c -0.86756,-0.72183 -1.78331,-1.40807 -2.72318,-2.05415 0.80674,-0.0907 1.60774,-0.2387 2.39383,-0.44182 0.12164,0.83084 0.23181,1.66283 0.32935,2.49597 z m -10.94207,15.45317 c -2.82532,-3.60223 -3.27172,-11.77636 -3.12942,-17.28929 4.94258,2.29973 11.97489,6.27836 14.03133,10.37862 1.83497,3.56206 1.62954,7.83216 -0.5405,11.20028 -6.39885,1.04085 -10.36141,-4.28961 -10.36141,-4.28961 z m -8.43923,28.01101 c -2.51777,-4.41928 -1.6261,-13.48623 -0.57493,-19.35031 4.9357,3.22124 12.06325,8.7158 13.65263,13.54247 1.42529,4.18404 0.49002,8.81104 -2.44776,12.11489 -4.42044,-0.0356 -8.48054,-2.44432 -10.62994,-6.30705 z m -17.53945,23.21305 c -2.43514,-5.05161 -0.7069,-15.02514 0.88478,-21.25987 5.08832,3.81451 12.59457,10.40845 13.97854,15.85022 1.24626,4.70274 -0.15033,9.71188 -3.65042,13.09147 -4.85421,-0.33853 -9.14498,-3.2786 -11.2129,-7.68182 z m -20.60116,-7.33871 c 4.48355,4.94832 11.02814,13.39558 11.35864,19.37326 0.45444,4.11175 -2.16547,10.56683 -6.51591,12.89295 -5.0011,-1.32774 -8.88563,-5.26735 -10.14336,-10.28566 -1.51365,-5.79868 2.38579,-15.89154 5.30063,-21.98055 z m -63.6465,19.37326 c 0.330495,-5.97768 6.875081,-14.42494 11.35864,-19.37326 2.91483,6.09015 6.81427,16.18303 5.30062,21.98055 -1.25773,5.01947 -5.14225,8.95907 -10.143362,10.28566 -4.349294,-2.32612 -6.96919,-8.78005 -6.515898,-12.89295 z m -24.104701,-17.4442 c 1.383969,-5.44177 8.890221,-12.03571 13.978543,-15.85022 1.590532,6.23473 3.318771,16.20826 0.884777,21.25987 -2.06792,4.40436 -6.358683,7.34329 -11.211754,7.68182 -3.501234,-3.37959 -4.897827,-8.38873 -3.651566,-13.09147 z M 51.041737,142.34425 c 1.589384,-4.82667 8.716939,-10.32123 13.652634,-13.54247 1.052322,5.86408 1.942836,14.93217 -0.574932,19.35031 -2.149397,3.86273 -6.209499,6.27147 -10.629936,6.30591 -2.937778,-3.30271 -3.8719,-7.92971 -2.447766,-12.11375 z m 4.638476,-22.20317 c 0,0 -3.963705,5.33046 -10.361405,4.28961 -2.170054,-3.36812 -2.376617,-7.63822 -0.540505,-11.20028 2.056445,-4.09912 9.08875,-8.07889 14.031332,-10.37862 0.142299,5.51293 -0.302958,13.68706 -3.129422,17.28929 z M 44.738138,104.68791 c 0.09755,-0.83429 0.20771,-1.66628 0.329353,-2.49597 0.787232,0.20312 1.587088,0.35116 2.393829,0.44182 -0.938711,0.64608 -1.85562,1.33347 -2.723182,2.05415 z M 68.35397,53.976809 c -1.035107,4.988486 -2.998598,11.017815 -5.667846,13.199344 -2.5017,2.09661 -5.92031,2.724331 -9.004977,1.655943 -1.068387,-3.083519 -0.439519,-6.502128 1.655943,-9.004977 2.476454,-3.280902 13.01688,-5.85031 13.01688,-5.85031 z M 48.683482,50.042942 c -1.47807,-1.395445 -4.368797,-4.718806 -3.924688,-9.010716 0.426896,-4.116331 4.246008,-9.019896 8.198237,-12.782776 1.867095,4.446831 4.092232,11.242737 2.89417,15.068734 -1.288721,4.118627 -5.258164,6.028183 -7.167719,6.724758 z m 13.379512,30.207471 c 0,0 -2.241203,10.937485 -6.522785,14.506425 -2.824167,2.267598 -6.638689,2.868925 -10.024019,1.580204 -1.148717,-3.434675 -0.392469,-7.220507 1.98759,-9.950575 2.67728,-3.143193 9.629256,-5.142259 14.559214,-6.136054 z M 30.841071,67.176153 c -2.953844,-2.414485 -4.814053,-7.820685 -5.737847,-12.80917 4.900122,0.926089 10.901911,2.787446 13.086883,5.461283 2.49252,3.049092 2.003656,7.040339 1.574465,8.921206 -1.884309,0.429191 -5.873261,0.919203 -8.923501,-1.573319 z M 21.031648,94.052231 C 17.808125,91.30495 15.893979,85.23316 15.022974,79.730564 c 4.808316,0.993795 11.846359,3.053683 14.380193,6.285238 2.731215,3.484021 2.023166,7.948066 1.503317,9.94369 -1.862506,0.54739 -6.623772,0.858382 -9.874836,-1.907261 z m -1.836112,34.260689 c -4.19207,-2.1035 -7.836752,-8.173 -10.1709075,-13.81903 5.3694765,-0.2364 13.4598415,0.0769 17.0827195,2.91712 3.901735,3.06056 4.251744,8.10758 4.200104,10.30402 -1.792503,1.05577 -7.315755,2.74154 -11.111916,0.59789 z m 7.149359,34.37659 c -4.920778,-1.61922 -9.870246,-7.70364 -13.270495,-13.4564 5.686208,-1.12691 14.638398,-2.1517 19.079491,0.37985 4.810611,2.74269 5.947853,8.27167 6.214089,10.58862 -1.592826,1.37019 -7.378872,4.23912 -12.023085,2.48793 z m 15.623011,27.18363 c -6.406881,-1.62956 -12.406375,-9.21958 -15.522026,-13.79149 6.028183,-1.65824 15.84564,-3.5219 20.93052,-1.07068 5.554236,2.67613 7.164277,8.74676 7.593467,11.17962 -1.584793,1.64102 -7.723142,5.26619 -13.001961,3.68255 z m 28.348409,23.30025 c -7.043782,-0.38903 -14.874796,-7.15396 -18.983095,-11.23012 5.872112,-2.94122 15.77908,-6.94165 21.590372,-5.42915 6.38852,1.66741 9.284984,7.73462 10.195007,10.12959 -1.598564,2.00252 -6.212941,6.89689 -12.802284,6.52968 z m 16.673036,-11.79014 c -1.952015,-3.52303 -7.754127,-11.59963 -18.233731,-10.88928 -1.235933,-0.80674 -6.604263,-5.498 -8.623985,-7.49133 -0.994942,-3.59992 -3.80075,-10.62421 -11.476842,-13.66641 -1.623811,-2.35251 -3.138603,-4.77618 -4.544376,-7.26985 0.0034,-0.023 0.01606,-0.0448 0.0195,-0.0677 0.294926,-5.06422 -2.020869,-12.12752 -7.344444,-16.17154 -1.481512,-4.29995 -2.65777,-8.69858 -3.520743,-13.16377 2.924007,-1.45397 2.709411,-2.56597 2.796627,-5.33965 0.0012,-2.48448 -0.484274,-8.24414 -4.538638,-12.68638 0.0034,-4.39059 0.301811,-8.77661 0.891662,-13.12819 1.932507,-0.43952 2.732363,-0.89625 3.238441,-1.832672 2.042673,-4.185185 1.791356,-10.353371 0.200824,-13.921165 1.155604,-3.809931 2.536129,-7.547564 4.134694,-11.194541 0.352303,-0.05967 3.912064,-0.514111 4.569621,-2.116117 0.453291,-0.693133 1.421839,-3.526482 1.27036,-7.584287 0.519849,-0.244432 1.105109,-0.310991 1.667418,-0.189349 -0.175578,2.520063 0.262794,5.045863 1.277244,7.359363 0.0058,0.01377 -2.756461,5.673583 -4.034854,9.072685 -5.320131,4.527161 -6.428684,11.463071 -4.760117,16.721234 -0.981172,5.262749 -1.502169,10.601249 -1.554958,15.953509 -1.024779,3.53107 -0.834282,7.30429 0.543948,10.71371 0.890515,7.80003 2.801218,15.44973 5.681617,22.75286 0.296073,4.49044 2.839087,10.07222 5.979984,12.35818 3.019257,5.19275 6.559508,10.06418 10.565674,14.53971 1.038549,3.7973 3.163848,7.20788 6.113101,9.81515 1.339215,1.33119 4.178301,0.76544 5.06193,0.62198 4.75897,3.70207 9.892049,6.8946 15.31661,9.52598 1.836121,3.14204 4.449127,5.75965 7.586592,7.60265 2.134477,1.3656 6.45737,-0.78494 8.24873,-1.77873 2.73121,0.75395 7.04378,1.53545 9.1817,1.89808 -3.655,1.15445 -7.13215,2.8081 -10.33501,4.91503 -5.276528,-1.32544 -10.422233,-3.11909 -15.378588,-5.35915 z m 74.962679,27.26053 c 0,0.001 0.55887,3.07318 -2.69908,4.04977 -3.43583,0.45787 -4.05895,-2.74269 -4.06354,-2.7645 -1.633,-8.0766 -5.93867,-12.42588 -12.2044,-15.1066 1.90611,-0.27542 7.73347,-1.2761 10.10205,-1.91989 4.26896,3.51844 7.41445,8.48513 8.86497,15.74122 z m 43.52273,-26.70051 c -4.10831,4.07616 -11.93932,10.84109 -18.9831,11.23012 -6.58934,0.36721 -11.20372,-4.52831 -12.80229,-6.52968 0.91002,-2.39497 3.8065,-8.46218 10.19502,-10.12959 5.81128,-1.5125 15.71825,2.48793 21.59037,5.42915 z m 24.88734,-25.86162 c -3.11566,4.57191 -9.11401,12.16193 -15.52203,13.79149 -5.27882,1.58364 -11.41832,-2.04153 -13.00197,-3.68255 0.4292,-2.43286 2.03924,-8.50235 7.59347,-11.17962 5.08604,-2.45122 14.90234,-0.58756 20.93053,1.07068 z m -17.68405,-14.08298 c 0.003,0.023 0.0149,0.0448 0.0195,0.0677 -1.40578,2.49367 -2.92057,4.91734 -4.54438,7.26985 -7.67609,3.04221 -10.4819,10.06649 -11.47684,13.66641 -2.01857,1.99333 -7.38805,6.68459 -8.62399,7.49133 -10.4796,-0.71035 -16.28056,7.36625 -18.23373,10.88928 -2.93319,1.32546 -8.50923,3.8306 -18.23946,6.04426 -6.13147,1.39429 -13.50575,2.30891 -24.18389,3.88452 -13.58493,2.23546 -23.14303,5.59211 -25.7767,18.61817 -0.004,0.0218 -0.62772,3.22238 -4.063543,2.76449 -3.257954,-0.97658 -2.700237,-4.04977 -2.699083,-4.04977 3.567793,-17.84356 17.329446,-21.90825 33.030486,-24.38241 0,0 7.05297,-1.04199 14.22528,-2.09432 5.428,-0.78494 10.15714,-1.87168 11.17732,-2.23546 1.79022,0.99265 6.11425,3.14434 8.24874,1.77873 3.13859,-1.84299 5.75046,-4.46061 7.58658,-7.60264 5.42456,-2.63138 10.55764,-5.82507 15.3166,-9.52597 0.88363,0.14344 3.72386,0.70805 5.06194,-0.62199 2.94925,-2.60728 5.07455,-6.01785 6.11309,-9.81516 4.00617,-4.47552 7.54642,-9.34696 10.56567,-14.53971 3.14091,-2.28596 5.68392,-7.86773 5.97999,-12.35817 2.8804,-7.30314 4.79111,-14.95284 5.68162,-22.75287 1.37708,-3.40942 1.56872,-7.18263 0.54395,-10.7137 -0.0528,-5.35342 -0.57264,-10.69191 -1.55496,-15.953514 1.66857,-5.258164 0.56001,-12.194074 -4.76012,-16.721235 -1.27839,-3.399101 -4.04059,-9.058914 -4.03485,-9.072685 1.01444,-2.3135 1.45282,-4.839301 1.27724,-7.359362 0.56116,-0.121644 1.14757,-0.05508 1.66742,0.189348 -0.15148,4.057806 0.81707,6.891155 1.27036,7.584287 0.65755,1.602007 4.21731,2.056444 4.56962,2.116118 1.59741,3.646976 2.97795,7.38461 4.13469,11.19454 -1.59052,3.567794 -1.84184,9.735979 0.20082,13.922313 0.50609,0.93642 1.30594,1.39315 3.23846,1.83267 0.58984,4.35159 0.88821,8.73759 0.89165,13.1282 -4.05436,4.44223 -4.53863,10.20189 -4.53863,12.68638 0.0873,2.77367 -0.12854,3.88567 2.79663,5.33963 -0.86298,4.46519 -2.04038,8.86383 -3.52075,13.16377 -5.32588,4.03944 -7.64167,11.10274 -7.34674,16.16696 z m 31.05552,-12.76556 c -3.40024,5.75276 -8.34971,11.83718 -13.27049,13.4564 -4.64422,1.75119 -10.43026,-1.11774 -12.02309,-2.48793 0.26624,-2.31695 1.40348,-7.84593 6.21409,-10.58862 4.4411,-2.53155 13.39329,-1.50676 19.07949,-0.37985 z m -17.23305,-21.51693 c -0.0516,-2.19645 0.29837,-7.24461 4.2001,-10.30403 3.62173,-2.84138 11.71325,-3.15466 17.08273,-2.91712 -2.33416,5.64605 -5.9777,11.71554 -10.17091,13.81904 -3.79616,2.1425 -9.31941,0.45673 -11.11192,-0.59789 z"
     id="path997"
     style="stroke-width:1" />
</svg>
