<?xml version="1.0" encoding="UTF-8" standalone="no"?>
<svg
   height="512"
   viewBox="0 0 512 512"
   width="512"
   version="1.1"
   id="svg1185"
   sodipodi:docname="time.svg"
   inkscape:version="1.1.1 (c3084ef, 2021-09-22)"
   xmlns:inkscape="http://www.inkscape.org/namespaces/inkscape"
   xmlns:sodipodi="http://sodipodi.sourceforge.net/DTD/sodipodi-0.dtd"
   xmlns="http://www.w3.org/2000/svg"
   xmlns:svg="http://www.w3.org/2000/svg">
  <defs
     id="defs1189" />
  <sodipodi:namedview
     id="namedview1187"
     pagecolor="#ffffff"
     bordercolor="#666666"
     borderopacity="1.0"
     inkscape:pageshadow="2"
     inkscape:pageopacity="0.0"
     inkscape:pagecheckerboard="0"
     showgrid="false"
     inkscape:zoom="1.4042969"
     inkscape:cx="43.082058"
     inkscape:cy="264.5452"
     inkscape:window-width="1296"
     inkscape:window-height="969"
     inkscape:window-x="0"
     inkscape:window-y="25"
     inkscape:window-maximized="0"
     inkscape:current-layer="svg1185" />
  <g
     id="_x31_9"
     transform="matrix(0.93329695,0,0,0.93329695,17.075981,17.075981)"
     style="stroke-width:1.07147">
    <g
       id="g1182"
       style="stroke-width:1.07147">
      <g
         id="g1096"
         style="stroke-width:1.07147">
        <path
           d="M 126,131 V 62.5 H 386 V 131 c 0,45.3 -23.1,85.1 -58.2,108.4 -11.9,7.9 -11.9,25.4 0,33.2 35.1,23.3 58.2,63.1 58.2,108.4 v 68.5 H 126 V 381 c 0,-45.3 23.1,-85.1 58.2,-108.4 11.9,-7.9 11.9,-25.4 0,-33.2 C 149.1,216.1 126,176.3 126,131 Z"
           fill="#d8f1f4"
           id="path1094"
           style="stroke-width:1.14805" />
      </g>
      <g
         id="g1100"
         style="stroke-width:1.07147">
        <path
           d="m 256,157.5 h 96.4 c 2,-7.3 3,-13.9 3.4,-19 0.5,-5.9 -4.2,-11 -10.2,-10.9 -43.2,1 -66.4,8 -89.7,14.9 v 15 z"
           fill="#fabd65"
           id="path1098"
           style="stroke-width:1.14805" />
      </g>
      <g
         id="g1104"
         style="stroke-width:1.07147">
        <path
           d="m 327.8,272.6 c -11,-7.3 -11.8,-22.8 -2.5,-31.3 -20.1,12.7 -43.8,20 -69.3,20 -25.5,0 -49.3,-7.3 -69.3,-20 9.3,8.5 8.5,24 -2.5,31.3 C 149.1,295.9 126,335.7 126,381 v 68.5 H 386 V 381 c 0,-45.3 -23.1,-85.1 -58.2,-108.4 z"
           fill="#bdeaf0"
           id="path1102"
           style="stroke-width:1.14805" />
      </g>
      <g
         id="g1108"
         style="stroke-width:1.07147">
        <path
           d="m 352.4,157.5 c -92.9,-0.7 -97.4,-27.9 -185.9,-29.9 -6,-0.1 -10.7,4.9 -10.2,10.9 1.8,19.6 11.1,60.5 55.9,82.4 8.4,4.1 15.5,10.5 20,18.8 3.8,7.1 5.9,15.2 5.9,23.5 v 121.9 h 35.8 V 263.2 c 0,-8.4 2.1,-16.5 6,-23.7 4.4,-8.2 11.5,-14.6 19.9,-18.6 25.5,-12.5 45,-35.5 52.6,-63.4 z"
           fill="#faca81"
           id="path1106"
           style="stroke-width:1.14805" />
      </g>
      <g
         id="g1112"
         style="stroke-width:1.07147">
        <path
           d="m 238.1,385.1 h 35.8 V 263.2 c 0,-1 0,-2.1 0.1,-3.1 h -0.1 c 0,9.9 -8,18 -18,18 -9.9,0 -18,-8 -18,-18 0.1,1 0.1,2.1 0.1,3.1 z"
           fill="#fabd65"
           id="path1110"
           style="stroke-width:1.14805" />
      </g>
      <g
         id="g1116"
         style="stroke-width:1.07147">
        <path
           d="m 256,324.5 c -65,0 -65,100 -130,100 v 35 h 260 v -35 c -65,0 -65,-100 -130,-100 z"
           fill="#faca81"
           id="path1114"
           style="stroke-width:1.14805" />
      </g>
      <g
         id="g1120"
         style="stroke-width:1.07147">
        <path
           d="m 312.4,424.5 c -52.6,0 -80.2,-67 -38.5,-97.1 -5.4,-1.9 -11.4,-2.9 -18,-2.9 -65,0 -65,100 -130,100 v 35 h 186.4 v -35 z"
           fill="#fabd65"
           id="path1118"
           style="stroke-width:1.14805" />
      </g>
      <g
         id="g1124"
         style="stroke-width:1.07147">
        <path
           d="M 386,87.5 H 126 c -11,0 -20,-9 -20,-20 v -30 h 300 v 30 c 0,11 -9,20 -20,20 z"
           fill="#dd9574"
           id="path1122"
           style="stroke-width:1.14805" />
      </g>
      <g
         id="g1128"
         style="stroke-width:1.07147">
        <path
           d="m 166,67.5 v -30 h -60 v 30 c 0,11 9,20 20,20 h 60 c -11,0 -20,-9 -20,-20 z"
           fill="#d88358"
           id="path1126"
           style="stroke-width:1.14805" />
      </g>
      <g
         id="g1132"
         style="stroke-width:1.07147">
        <path
           d="m 126,424.5 h 260 c 11,0 20,9 20,20 v 30 H 106 v -30 c 0,-11 9,-20 20,-20 z"
           fill="#dd9574"
           id="path1130"
           style="stroke-width:1.14805" />
      </g>
      <g
         id="g1136"
         style="stroke-width:1.07147">
        <path
           d="m 166,444.5 v 30 h -60 v -30 c 0,-11 9,-20 20,-20 h 60 c -11,0 -20,9 -20,20 z"
           fill="#d88358"
           id="path1134"
           style="stroke-width:1.14805" />
      </g>
      <g
         id="g1140"
         style="stroke-width:1.07147">
        <path
           d="M 426,47.5 H 86 c -11,0 -20,-9 -20,-20 0,-11 9,-20 20,-20 h 340 c 11,0 20,9 20,20 0,11 -9,20 -20,20 z"
           fill="#e4a988"
           id="path1138"
           style="stroke-width:1.14805" />
      </g>
      <g
         id="g1144"
         style="stroke-width:1.07147">
        <path
           d="m 146,27.5 c 0,-11 9,-20 20,-20 H 86 c -11,0 -20,9 -20,20 0,11 9,20 20,20 h 80 c -11,0 -20,-9 -20,-20 z"
           fill="#dd9574"
           id="path1142"
           style="stroke-width:1.14805" />
      </g>
      <g
         id="g1148"
         style="stroke-width:1.07147">
        <path
           d="m 86,464.5 h 340 c 11,0 20,9 20,20 0,11 -9,20 -20,20 H 86 c -11,0 -20,-9 -20,-20 0,-11 9,-20 20,-20 z"
           fill="#e4a988"
           id="path1146"
           style="stroke-width:1.14805" />
      </g>
      <g
         id="g1152"
         style="stroke-width:1.07147">
        <path
           d="m 146,484.5 c 0,11 9,20 20,20 H 86 c -11,0 -20,-9 -20,-20 0,-11 9,-20 20,-20 h 80 c -11,0 -20,9 -20,20 z"
           fill="#dd9574"
           id="path1150"
           style="stroke-width:1.14805" />
      </g>
      <g
         id="g1180"
         style="stroke-width:1.07147">
        <path
           d="m 426,457 h -12.5 v -12.5 c 0,-12.6 -8.5,-23.2 -20,-26.5 v -37 c 0,-46.2 -23,-89.1 -61.6,-114.6 -3.5,-2.3 -5.5,-6.1 -5.5,-10.4 0,-4.2 2,-8 5.5,-10.4 7.8,-5.2 15,-11.1 21.6,-17.7 2.9,-2.9 2.9,-7.7 0,-10.6 -2.9,-2.9 -7.7,-2.9 -10.6,0 -5.9,5.9 -12.3,11.2 -19.3,15.8 -1,0.7 -1.9,1.4 -2.8,2.2 -6.9,4.3 -14.3,8 -22,10.8 -3.9,1.4 -5.9,5.8 -4.4,9.7 1.1,3 4,4.9 7,4.9 0.9,0 1.8,-0.2 2.6,-0.5 2.5,-0.9 4.9,-1.9 7.4,-3 0.4,8.8 4.9,16.8 12.2,21.7 34.3,22.8 54.8,61 54.8,102.1 v 35.4 c -23.6,-3.6 -37.1,-24.3 -51.2,-46 -12,-18.4 -25.2,-38.7 -45.9,-48.1 v -59.1 c 0,-7 1.7,-14 5.1,-20.1 3.5,-6.5 9.3,-11.9 16.6,-15.5 27.8,-13.6 48.4,-38.4 56.6,-68.2 0,-0.1 0,-0.1 0,-0.2 1.8,-6.6 3,-13.4 3.6,-20.1 0.5,-4.9 -1.2,-9.9 -4.6,-13.5 -3.4,-3.6 -8.2,-5.7 -13.2,-5.6 -42.8,1 -66.7,7.8 -89.4,14.6 -22.6,-6.8 -46.6,-13.6 -89.4,-14.6 -5,-0.1 -9.8,1.9 -13.2,5.6 -3.4,3.6 -5.1,8.6 -4.6,13.5 1.2,13.1 5.3,32.8 17.7,51.7 2.3,3.5 6.9,4.4 10.4,2.1 3.5,-2.3 4.4,-6.9 2.1,-10.4 -10.7,-16.4 -14.3,-33.4 -15.3,-44.9 -0.1,-0.9 0.4,-1.6 0.7,-1.9 0.3,-0.3 0.9,-0.8 1.9,-0.8 42.1,1 64.1,7.6 87.5,14.6 22.7,6.8 46.1,13.8 88.3,15.1 -8.4,21.4 -24.7,39.1 -45.6,49.4 -10.2,5 -18.2,12.5 -23.2,21.8 -4.5,8.3 -6.8,17.7 -6.8,27.2 v 54.6 c -3.3,-0.5 -6.8,-0.8 -10.4,-0.8 -3.7,0 -7.1,0.3 -10.4,0.8 V 263 c 0,-9.4 -2.3,-18.8 -6.8,-27.1 -5,-9.4 -13.1,-17 -23.3,-22 -6.5,-3.2 -12.4,-6.9 -17.8,-11.1 -3.2,-2.6 -8,-2 -10.5,1.2 -2.6,3.2 -2,8 1.2,10.5 6.2,4.9 13.1,9.2 20.5,12.8 7.4,3.6 13.1,9 16.6,15.5 3.3,6.1 5,13 5,20 v 59.1 c -12.7,5.7 -21.6,14.9 -27.9,22.6 -2.6,3.2 -2.2,7.9 1,10.6 3.2,2.6 7.9,2.2 10.6,-1 12.8,-15.5 25.7,-22.4 41.7,-22.4 28.4,0 43.1,22.6 58.7,46.6 8.8,13.5 18.2,28 30.7,38.4 H 166.6 c 12.5,-10.5 21.9,-24.9 30.7,-38.4 2.3,-3.5 1.3,-8.1 -2.2,-10.4 -3.5,-2.3 -8.1,-1.3 -10.4,2.2 -14.1,21.8 -27.6,42.4 -51.2,46 V 381 c 0,-41.2 20.5,-79.3 54.8,-102.1 7.3,-4.9 11.8,-12.9 12.2,-21.7 2.4,1.1 4.9,2.1 7.4,3 0.9,0.3 1.8,0.5 2.6,0.5 3,0 5.9,-1.9 7,-4.9 1.4,-3.9 -0.5,-8.2 -4.4,-9.7 -7.6,-2.9 -15,-6.5 -22,-10.8 -0.9,-0.8 -1.8,-1.5 -2.8,-2.2 C 154,210.3 133.5,172.1 133.5,131 V 95 h 245 v 36 c 0,13 -2,25.8 -6,38.1 -1.3,3.9 0.9,8.2 4.8,9.5 0.8,0.3 1.6,0.4 2.3,0.4 3.2,0 6.1,-2 7.1,-5.2 4.5,-13.8 6.8,-28.1 6.8,-42.8 V 94 c 11.5,-3.3 20,-13.9 20,-26.5 V 55 H 426 C 441.2,55 453.5,42.7 453.5,27.5 453.5,12.3 441.2,0 426,0 H 86 C 70.8,0 58.5,12.3 58.5,27.5 58.5,42.7 70.8,55 86,55 h 12.5 v 12.5 c 0,12.6 8.5,23.2 20,26.5 v 37 c 0,46.2 23,89.1 61.6,114.6 3.5,2.3 5.5,6.1 5.5,10.4 0,4.2 -2,8 -5.5,10.4 -38.5,25.6 -61.6,68.4 -61.6,114.6 v 37 c -11.5,3.3 -20,13.9 -20,26.5 V 457 H 86 c -15.2,0 -27.5,12.3 -27.5,27.5 0,15.2 12.3,27.5 27.5,27.5 h 340 c 15.2,0 27.5,-12.3 27.5,-27.5 C 453.5,469.3 441.2,457 426,457 Z M 284.1,142.5 c 16.1,-3.9 34.8,-6.8 61.8,-7.4 1,0 1.6,0.5 1.9,0.8 0.3,0.3 0.7,0.9 0.7,1.9 -0.4,4 -1,8.1 -1.9,12.1 -27.3,-0.6 -46.3,-3.5 -62.5,-7.4 z M 73.5,27.5 C 73.5,20.6 79.1,15 86,15 h 340 c 6.9,0 12.5,5.6 12.5,12.5 0,6.9 -5.6,12.5 -12.5,12.5 H 86 C 79.1,40 73.5,34.4 73.5,27.5 Z m 40,40 V 55 h 285 V 67.5 C 398.5,74.4 392.9,80 386,80 H 126 c -6.9,0 -12.5,-5.6 -12.5,-12.5 z M 426,497 H 86 c -6.9,0 -12.5,-5.6 -12.5,-12.5 0,-6.9 5.6,-12.5 12.5,-12.5 h 208.5 c 4.1,0 7.5,-3.4 7.5,-7.5 0,-4.1 -3.4,-7.5 -7.5,-7.5 h -181 v -12.5 c 0,-6.9 5.6,-12.5 12.5,-12.5 h 260 c 6.9,0 12.5,5.6 12.5,12.5 V 457 h -44 c -4.1,0 -7.5,3.4 -7.5,7.5 0,4.1 3.4,7.5 7.5,7.5 H 426 c 6.9,0 12.5,5.6 12.5,12.5 0,6.9 -5.6,12.5 -12.5,12.5 z"
           id="path1154"
           style="stroke-width:1.07147" />
        <circle
           cx="211.7"
           cy="172.8"
           r="7.5"
           id="circle1156"
           style="stroke-width:1.07147" />
        <circle
           cx="240.3"
           cy="196.60001"
           r="7.5"
           id="circle1158"
           style="stroke-width:1.07147" />
        <circle
           cx="283.70001"
           cy="367"
           r="7.5"
           id="circle1160"
           style="stroke-width:1.07147" />
        <circle
           cx="232.8"
           cy="389.5"
           r="7.5"
           id="circle1162"
           style="stroke-width:1.07147" />
        <path
           d="m 397.6,300.4 10.4,2.8 c 0.7,0.2 1.3,0.3 1.9,0.3 3.3,0 6.3,-2.2 7.2,-5.6 1.1,-4 -1.3,-8.1 -5.3,-9.2 l -10.4,-2.8 c -4,-1.1 -8.1,1.3 -9.2,5.3 -1.1,4 1.4,8.1 5.4,9.2 z"
           id="path1164"
           style="stroke-width:1.07147" />
        <path
           d="m 433.5,256 c 0,-4.1 -3.4,-7.5 -7.5,-7.5 h -21.5 c -4.1,0 -7.5,3.4 -7.5,7.5 0,4.1 3.4,7.5 7.5,7.5 H 426 c 4.1,0 7.5,-3.4 7.5,-7.5 z"
           id="path1166"
           style="stroke-width:1.07147" />
        <path
           d="m 399.6,226.3 c 0.6,0 1.3,-0.1 1.9,-0.3 l 10.4,-2.8 c 4,-1.1 6.4,-5.2 5.3,-9.2 -1.1,-4 -5.2,-6.4 -9.2,-5.3 l -10.4,2.8 c -4,1.1 -6.4,5.2 -5.3,9.2 0.9,3.4 4,5.6 7.3,5.6 z"
           id="path1168"
           style="stroke-width:1.07147" />
        <path
           d="m 110.5,285.9 -10.4,2.8 c -4,1.1 -6.4,5.2 -5.3,9.2 0.9,3.4 3.9,5.6 7.2,5.6 0.6,0 1.3,-0.1 1.9,-0.3 l 10.4,-2.8 c 4,-1.1 6.4,-5.2 5.3,-9.2 -1,-4 -5.1,-6.3 -9.1,-5.3 z"
           id="path1170"
           style="stroke-width:1.07147" />
        <path
           d="m 78.5,256 c 0,4.1 3.4,7.5 7.5,7.5 h 21.5 c 4.1,0 7.5,-3.4 7.5,-7.5 0,-4.1 -3.4,-7.5 -7.5,-7.5 H 86 c -4.1,0 -7.5,3.4 -7.5,7.5 z"
           id="path1172"
           style="stroke-width:1.07147" />
        <path
           d="M 114.4,211.6 104,208.8 c -4,-1.1 -8.1,1.3 -9.2,5.3 -1.1,4 1.3,8.1 5.3,9.2 l 10.4,2.8 c 0.7,0.2 1.3,0.3 1.9,0.3 3.3,0 6.3,-2.2 7.2,-5.6 1.2,-4 -1.2,-8.1 -5.2,-9.2 z"
           id="path1174"
           style="stroke-width:1.07147" />
        <circle
           cx="324.5"
           cy="464.5"
           r="7.5"
           id="circle1176"
           style="stroke-width:1.07147" />
        <circle
           cx="367"
           cy="198.8"
           r="7.5"
           id="circle1178"
           style="stroke-width:1.07147" />
      </g>
    </g>
  </g>
</svg>
