<?xml version="1.0" encoding="UTF-8"?>
<svg xmlns="http://www.w3.org/2000/svg" xmlns:xlink="http://www.w3.org/1999/xlink" version="1.1" id="Capa_1" x="0px" y="0px" viewBox="0 0 512 512" style="enable-background:new 0 0 512 512;" xml:space="preserve" width="512" height="512">
<g>
	<path style="fill:#B5C0FF;" d="M138.514,393.634c-8.439-8.439-13.18-19.885-13.18-31.82V150.186c0-11.935,4.741-23.381,13.18-31.82&#10;&#9;&#9;l9.95-9.95c2.886-2.886,4.683-6.76,4.703-10.841c0.041-8.319-6.691-15.075-15-15.075h-26.936l-30.898,67.687v211.627l30.898,67.687&#10;&#9;&#9;h26.496c7.899,0,14.761-5.925,15.392-13.799c0.353-4.404-1.25-8.713-4.345-11.808L138.514,393.634z"/>
	<path style="fill:#CFDDFF;" d="M117.301,414.848c-4.653-4.653-8.619-9.81-11.848-15.348l-25.119-37.687V150.187l25.119-37.687&#10;&#9;&#9;c3.229-5.537,7.194-10.693,11.847-15.346c5.408-5.408,1.578-14.654-6.069-14.654H22.94c-7.899,0-14.761,5.925-15.392,13.799&#10;&#9;&#9;c-0.353,4.404,1.25,8.712,4.345,11.808l10.26,10.26c8.439,8.439,13.18,19.885,13.18,31.82v211.628&#10;&#9;&#9;c0,11.935-4.741,23.38-13.18,31.82l-9.95,9.95c-2.886,2.886-4.683,6.76-4.703,10.842c-0.04,8.319,6.691,15.074,15,15.074h88.731&#10;&#9;&#9;C118.878,429.5,122.708,420.255,117.301,414.848z"/>
	<path style="fill:#E8F3FF;" d="M55.214,399.5c6.601-11.32,10.119-24.233,10.119-37.686V150.186&#10;&#9;&#9;c0-13.453-3.518-26.365-10.119-37.686h50.238c-6.601,11.321-10.12,24.234-10.12,37.687v211.627c0,13.453,3.519,26.366,10.12,37.687&#10;&#9;&#9;H55.214z"/>
	<path style="fill:#B5C0FF;" d="M314.18,393.634c-8.439-8.439-13.18-19.885-13.18-31.82V150.186c0-11.935,4.741-23.381,13.18-31.82&#10;&#9;&#9;l9.95-9.95c2.886-2.886,4.683-6.76,4.703-10.841c0.041-8.319-6.691-15.075-15-15.075h-26.936L256,150.187v211.627l30.898,67.687&#10;&#9;&#9;h26.496c7.899,0,14.761-5.925,15.392-13.799c0.353-4.404-1.25-8.713-4.345-11.808L314.18,393.634z"/>
	<path style="fill:#CFDDFF;" d="M292.967,414.848c-4.653-4.653-8.619-9.81-11.848-15.348L256,361.813V150.187l25.119-37.687&#10;&#9;&#9;c3.229-5.537,7.194-10.693,11.847-15.346c5.408-5.408,1.578-14.654-6.069-14.654h-88.291c-7.899,0-14.761,5.925-15.392,13.799&#10;&#9;&#9;c-0.353,4.404,1.25,8.712,4.345,11.808l10.26,10.26c8.439,8.439,13.18,19.885,13.18,31.82v211.628&#10;&#9;&#9;c0,11.935-4.741,23.38-13.18,31.82l-9.95,9.95c-2.886,2.886-4.683,6.76-4.703,10.842c-0.04,8.319,6.691,15.074,15,15.074h88.731&#10;&#9;&#9;C294.545,429.5,298.374,420.255,292.967,414.848z"/>
	<path style="fill:#E8F3FF;" d="M230.881,399.5C237.482,388.18,241,375.267,241,361.814V150.186&#10;&#9;&#9;c0-13.453-3.518-26.365-10.119-37.686h50.238c-6.601,11.321-10.12,24.234-10.12,37.687v211.627c0,13.453,3.519,26.366,10.12,37.687&#10;&#9;&#9;H230.881z"/>
	<path style="fill:#B5C0FF;" d="M489.847,393.634c-8.439-8.439-13.18-19.885-13.18-31.82V150.186c0-11.935,4.741-23.381,13.18-31.82&#10;&#9;&#9;l9.95-9.95c2.886-2.886,4.683-6.76,4.703-10.841c0.041-8.319-6.691-15.075-15-15.075h-26.936l-30.898,67.687v211.627l30.898,67.687&#10;&#9;&#9;h26.496c7.899,0,14.761-5.925,15.392-13.799c0.353-4.404-1.25-8.713-4.345-11.808L489.847,393.634z"/>
	<path style="fill:#CFDDFF;" d="M468.634,414.848c-4.653-4.653-8.619-9.81-11.848-15.348l-25.119-37.687V150.187l25.119-37.687&#10;&#9;&#9;c3.229-5.537,7.194-10.693,11.847-15.346c5.408-5.408,1.578-14.654-6.069-14.654h-88.291c-7.899,0-14.761,5.925-15.392,13.799&#10;&#9;&#9;c-0.353,4.404,1.25,8.712,4.345,11.808l10.26,10.26c8.439,8.439,13.18,19.885,13.18,31.82v211.628&#10;&#9;&#9;c0,11.935-4.741,23.38-13.18,31.82l-9.95,9.95c-2.886,2.886-4.683,6.76-4.703,10.842c-0.04,8.319,6.691,15.074,15,15.074h88.731&#10;&#9;&#9;C470.211,429.5,474.041,420.255,468.634,414.848z"/>
	<path style="fill:#E8F3FF;" d="M406.548,399.5c6.601-11.32,10.119-24.233,10.119-37.686V150.186&#10;&#9;&#9;c0-13.453-3.518-26.365-10.119-37.686h50.238c-6.601,11.321-10.12,24.234-10.12,37.687v211.627c0,13.453,3.519,26.366,10.12,37.687&#10;&#9;&#9;H406.548z"/>
	<path style="fill:none;stroke:#000000;stroke-width:15;stroke-linecap:round;stroke-linejoin:round;stroke-miterlimit:10;" d="&#10;&#9;&#9;M301,361.814V150.186c0-11.935,4.741-23.381,13.18-31.82l9.95-9.95c2.886-2.886,4.683-6.76,4.703-10.841&#10;&#9;&#9;c0.041-8.319-6.691-15.075-15-15.075l-115.227,0c-7.899,0-14.762,5.926-15.392,13.8c-0.352,4.404,1.25,8.712,4.345,11.807&#10;&#9;&#9;l10.26,10.259c8.439,8.439,13.18,19.885,13.18,31.82v211.628c0,11.935-4.741,23.381-13.18,31.82l-9.95,9.95&#10;&#9;&#9;c-2.886,2.886-4.683,6.76-4.703,10.842c-0.04,8.318,6.691,15.074,15,15.074l115.227,0c7.899,0,14.761-5.925,15.392-13.799&#10;&#9;&#9;c0.353-4.404-1.25-8.713-4.345-11.808l-10.26-10.26C305.741,385.194,301,373.748,301,361.814z"/>
	<path style="fill:none;stroke:#000000;stroke-width:15;stroke-linecap:round;stroke-linejoin:round;stroke-miterlimit:10;" d="&#10;&#9;&#9;M241,241v-90.814c0-13.453-3.519-26.366-10.119-37.686h50.238C274.517,123.822,271,136.733,271,150.187v211.627&#10;&#9;&#9;c0,13.454,3.518,26.365,10.119,37.687h-50.238C237.481,388.18,241,375.267,241,361.814V271"/>
	<path style="fill:none;stroke:#000000;stroke-width:15;stroke-linecap:round;stroke-linejoin:round;stroke-miterlimit:10;" d="&#10;&#9;&#9;M138.514,393.634c-8.439-8.439-13.18-19.885-13.18-31.82V150.186c0-11.935,4.741-23.381,13.18-31.82l9.95-9.95&#10;&#9;&#9;c2.886-2.886,4.683-6.76,4.703-10.841c0.041-8.319-6.691-15.075-15-15.075H22.94c-7.899,0-14.762,5.926-15.392,13.8&#10;&#9;&#9;c-0.352,4.404,1.25,8.712,4.345,11.807l10.26,10.26c8.439,8.439,13.18,19.885,13.18,31.82v211.628&#10;&#9;&#9;c0,11.935-4.741,23.381-13.18,31.82l-9.95,9.95c-2.886,2.886-4.683,6.76-4.703,10.842c-0.04,8.318,6.691,15.074,15,15.074h115.227&#10;&#9;&#9;c7.899,0,14.761-5.925,15.392-13.799c0.353-4.404-1.25-8.713-4.345-11.808L138.514,393.634z"/>
	<path style="fill:none;stroke:#000000;stroke-width:15;stroke-linecap:round;stroke-linejoin:round;stroke-miterlimit:10;" d="&#10;&#9;&#9;M65.333,241v-90.814c0-13.453-3.518-26.365-10.119-37.686h50.238c-6.601,11.321-10.119,24.234-10.119,37.687v211.627&#10;&#9;&#9;c0,13.453,3.519,26.366,10.119,37.687H55.214c6.601-11.32,10.119-24.233,10.119-37.686V271"/>
	<path style="fill:none;stroke:#000000;stroke-width:15;stroke-linecap:round;stroke-linejoin:round;stroke-miterlimit:10;" d="&#10;&#9;&#9;M476.667,361.814V150.186c0-11.935,4.741-23.381,13.18-31.82l9.95-9.95c2.886-2.886,4.683-6.76,4.703-10.841&#10;&#9;&#9;c0.041-8.319-6.691-15.075-15-15.075l-115.227,0c-7.899,0-14.762,5.926-15.392,13.8c-0.352,4.404,1.25,8.712,4.345,11.807&#10;&#9;&#9;l10.26,10.259c8.439,8.439,13.18,19.885,13.18,31.82v211.628c0,11.935-4.741,23.381-13.18,31.82l-9.95,9.95&#10;&#9;&#9;c-2.886,2.886-4.683,6.76-4.703,10.842c-0.04,8.318,6.691,15.074,15,15.074l115.227,0c7.899,0,14.761-5.925,15.392-13.799&#10;&#9;&#9;c0.353-4.404-1.25-8.713-4.345-11.808l-10.26-10.26C481.408,385.194,476.667,373.748,476.667,361.814z"/>
	<path style="fill:none;stroke:#000000;stroke-width:15;stroke-linecap:round;stroke-linejoin:round;stroke-miterlimit:10;" d="&#10;&#9;&#9;M406.548,399.5c6.601-11.32,10.119-24.233,10.119-37.686V150.186c0-13.453-3.518-26.365-10.119-37.686h50.238&#10;&#9;&#9;c-6.601,11.321-10.12,24.234-10.12,37.687v211.627c0,13.453,3.519,26.366,10.12,37.687H406.548z"/>
</g>















</svg>
