<?xml version="1.0" standalone="no"?>
<!DOCTYPE svg PUBLIC "-//W3C//DTD SVG 20010904//EN"
 "http://www.w3.org/TR/2001/REC-SVG-20010904/DTD/svg10.dtd">
<svg version="1.0" xmlns="http://www.w3.org/2000/svg"
 width="1024.000000pt" height="1024.000000pt" viewBox="0 0 1024.000000 1024.000000"
 preserveAspectRatio="xMidYMid meet">
<metadata>
Created by potrace 1.14, written by Peter Selinger 2001-2017
</metadata>
<g transform="translate(0.000000,1024.000000) scale(0.100000,-0.100000)"
fill="#000000" stroke="none">
<path d="M4935 9283 c-202 -24 -338 -60 -480 -127 -115 -55 -205 -112 -205
-132 0 -8 45 -151 100 -316 179 -539 213 -707 240 -1202 9 -157 9 -201 -1
-207 -7 -4 -55 -15 -108 -24 -53 -10 -155 -37 -228 -61 -570 -188 -949 -601
-1087 -1186 -39 -166 -49 -266 -50 -503 l-1 -220 -80 -5 -80 -5 2 -40 c1 -22
7 -107 13 -190 34 -512 38 -1075 10 -1360 -13 -131 -65 -424 -77 -436 -5 -4
-57 -19 -118 -34 -275 -67 -621 -171 -628 -188 -3 -7 -46 -120 -97 -252 -50
-132 -95 -244 -100 -249 -7 -7 -754 -44 -912 -46 l-46 0 -202 -322 c-112 -178
-213 -336 -225 -353 -19 -26 -61 -44 -299 -130 l-276 -100 0 -797 0 -798 5120
0 5120 0 0 794 0 793 -272 104 c-150 57 -280 111 -288 119 -8 8 -107 161 -219
340 -112 179 -209 331 -215 338 -10 10 -133 18 -487 33 -261 11 -477 23 -480
27 -3 4 -48 117 -99 252 -51 135 -98 250 -104 256 -11 12 -388 106 -640 160
-115 25 -129 31 -138 53 -18 49 -77 368 -87 476 -20 206 -31 400 -31 565 0
153 31 784 46 927 l6 62 -87 3 -88 3 -2 220 c-1 196 -5 235 -29 353 -31 155
-54 233 -104 357 -218 543 -673 927 -1232 1040 l-105 21 -3 66 c-3 72 36 390
69 558 70 362 132 604 244 948 25 79 44 150 41 157 -11 30 -183 123 -318 173
-194 72 -489 108 -683 85z m724 -2208 c352 -71 579 -184 787 -390 226 -223
365 -528 403 -887 14 -121 14 -398 2 -398 -22 0 -156 31 -162 38 -4 4 -19 90
-33 192 -66 464 -164 697 -386 921 -174 177 -375 282 -660 348 l-115 27 4 79
c1 44 5 83 8 88 6 11 19 9 152 -18z m-1004 -37 c65 -160 115 -359 115 -455 -1
-193 -120 -394 -325 -548 -145 -109 -294 -165 -434 -165 -100 0 -164 24 -218
81 -66 70 -99 198 -87 341 8 94 2 96 -52 13 -100 -158 -161 -467 -152 -780 l2
-90 -39 -13 c-22 -7 -58 -16 -81 -19 l-41 -5 -6 62 c-10 92 -8 229 4 360 52
564 328 944 832 1145 92 36 182 62 312 90 153 32 150 33 170 -17z m745 -1139
c376 -321 859 -551 1435 -684 66 -15 138 -32 160 -39 46 -13 43 12 25 -216
-30 -396 -33 -848 -9 -1165 10 -126 50 -404 69 -475 5 -19 32 -126 60 -238
l50 -203 -56 -110 c-31 -60 -96 -170 -145 -244 -227 -343 -489 -604 -844 -844
-124 -84 -338 -212 -446 -267 l-51 -25 6 38 c39 257 62 703 96 1828 17 583 23
725 29 725 3 0 47 -5 96 -10 300 -35 564 101 690 354 29 59 48 111 49 134 l1
37 -225 -1 c-249 0 -386 -13 -529 -50 -228 -58 -352 -161 -412 -339 l-24 -70
-5 -875 -5 -875 -38 -68 c-57 -101 -152 -222 -214 -272 -30 -25 -58 -45 -63
-45 -31 0 -160 135 -237 250 -78 116 -77 108 -74 385 1 138 6 528 12 867 9
556 9 624 -6 680 -24 95 -53 147 -115 208 -147 145 -360 197 -849 207 l-274 6
7 -42 c10 -67 70 -180 133 -256 147 -175 383 -263 630 -235 53 6 97 9 98 8 2
-3 28 -765 45 -1338 6 -179 14 -419 20 -535 10 -203 45 -636 55 -682 7 -31 -3
-29 -93 18 -558 299 -944 636 -1236 1077 -47 71 -112 181 -146 244 l-60 115
59 239 c92 371 113 513 131 880 11 228 3 599 -22 979 -6 102 -9 188 -5 191 3
4 52 17 109 29 506 111 924 277 1253 497 176 118 275 199 435 355 l135 132
115 -113 c63 -61 144 -137 180 -167z"/>
<path d="M5097 4043 c-4 -994 -5 -1809 -2 -1811 9 -9 76 50 115 101 l39 53 3
834 4 835 23 75 c78 259 265 401 611 466 73 13 164 18 400 21 168 2 346 0 395
-4 l90 -8 -3 -70 c-6 -121 -38 -251 -88 -354 -38 -78 -60 -109 -124 -171 -124
-123 -276 -188 -520 -220 -47 -7 -86 -12 -86 -13 -3 -4 -25 -498 -39 -877 -8
-217 -19 -485 -25 -595 -5 -110 -13 -289 -16 -399 l-7 -198 24 7 c65 21 261
155 409 280 115 98 346 337 449 465 98 122 201 275 236 352 l24 53 -24 101
c-78 330 -123 934 -111 1509 3 176 9 364 12 417 7 96 7 97 -17 102 -647 125
-1293 426 -1671 776 -47 44 -88 80 -90 80 -3 0 -8 -813 -11 -1807z"/>
</g>
</svg>
