<?xml version="1.0" encoding="UTF-8" standalone="no"?>
<svg
   id="Layer_1"
   enable-background="new 0 0 512 512"
   height="512"
   viewBox="0 0 512 512"
   width="512"
   version="1.1"
   sodipodi:docname="sports.svg"
   inkscape:version="1.1.1 (c3084ef, 2021-09-22)"
   xmlns:inkscape="http://www.inkscape.org/namespaces/inkscape"
   xmlns:sodipodi="http://sodipodi.sourceforge.net/DTD/sodipodi-0.dtd"
   xmlns="http://www.w3.org/2000/svg"
   xmlns:svg="http://www.w3.org/2000/svg">
  <defs
     id="defs857" />
  <sodipodi:namedview
     id="namedview855"
     pagecolor="#ffffff"
     bordercolor="#666666"
     borderopacity="1.0"
     inkscape:pageshadow="2"
     inkscape:pageopacity="0.0"
     inkscape:pagecheckerboard="0"
     showgrid="false"
     inkscape:zoom="1.4042969"
     inkscape:cx="201.16829"
     inkscape:cy="257.06815"
     inkscape:window-width="1728"
     inkscape:window-height="1080"
     inkscape:window-x="0"
     inkscape:window-y="37"
     inkscape:window-maximized="0"
     inkscape:current-layer="Layer_1" />
  <g
     id="g2446">
    <g
       clip-rule="evenodd"
       fill-rule="evenodd"
       id="g848"
       transform="matrix(1.7378934,0,0,1.7378934,-197.51979,13.74635)"
       style="stroke-width:0.575409">
      <g
         id="g1963"
         style="stroke-width:0.575409">
        <g
           id="g1958"
           style="stroke-width:0.575409">
          <path
             d="m 394.001,139.376 c 0,2.551 -0.07,5.082 -0.221,7.592 -0.281,5.051 -0.854,10.012 -1.679,14.873 -3.085,18.177 -9.889,35.079 -19.548,49.942 -0.181,0.271 -0.362,0.552 -0.543,0.824 -2.834,4.278 -5.909,8.386 -9.196,12.292 -22.885,27.175 -56.463,45.051 -94.272,47.17 -2.513,0.151 -5.045,0.221 -7.598,0.221 -2.553,0 -5.085,-0.07 -7.598,-0.211 -37.699,-2.119 -71.196,-19.924 -94.071,-46.989 -3.307,-3.907 -6.382,-8.004 -9.226,-12.272 -12.664,-19.061 -20.553,-41.586 -21.92,-65.849 -0.141,-2.511 -0.211,-5.041 -0.211,-7.592 0,-2.541 0.07,-5.071 0.211,-7.582 1.357,-24.082 9.146,-46.467 21.669,-65.447 2.824,-4.278 5.889,-8.385 9.186,-12.302 22.875,-27.255 56.503,-45.201 94.362,-47.33 2.513,-0.141 5.045,-0.211 7.598,-0.211 2.543,0 5.086,0.07 7.598,0.211 2.804,0.151 5.588,0.382 8.342,0.703 34.382,4.097 64.734,21.3 85.91,46.457 3.307,3.907 6.372,8.014 9.196,12.282 12.603,19.021 20.432,41.466 21.789,65.638 0.152,2.509 0.222,5.039 0.222,7.58 z"
             fill="#fdb440"
             id="path828"
             style="stroke-width:0.430738" />
          <path
             d="m 298.05,267.044 c 30.994,-8.985 57.288,-28.885 74.5,-55.265 9.658,-14.86 16.463,-31.765 19.548,-49.937 1.24,-7.286 1.903,-14.803 1.903,-22.463 C 394.001,71.385 342.854,15.284 276.889,7.422 271.67,6.817 266.336,6.5 260.945,6.5 c -2.768,0 -5.536,0.086 -8.303,0.259 58.527,13.939 102.034,66.526 102.034,129.25 0,7.661 -0.634,15.148 -1.903,22.463 -3.085,18.172 -9.86,35.077 -19.548,49.937 -14.012,21.484 -34.05,38.648 -57.72,49.131 -1.153,0.518 -2.306,1.008 -3.46,1.497 -13.118,5.357 -27.274,8.697 -42.094,9.619 9.947,2.361 20.326,3.629 30.994,3.629 5.449,0 10.812,-0.346 16.088,-0.979 7.035,-0.835 13.897,-2.218 20.528,-4.118 l 0.029,-0.029 z"
             fill="#fe9900"
             id="path846"
             style="stroke-width:0.430738" />
        </g>
      </g>
    </g>
    <path
       d="m 338.15457,484.90142 c 49.33184,-17.64657 92.26302,-51.06453 121.81937,-96.4809 18.17489,-27.98356 30.19764,-58.72688 35.73631,-91.36974 2.30617,-13.566 3.47578,-27.38572 3.47578,-41.0751 0,-123.06198 -92.03536,-226.840283 -214.12759,-241.402093 -9.62096,-1.117465 -19.40705,-1.68228 -29.0819,-1.68228 -34.11833,0 -67.09833,6.915079 -98.02762,20.550591 -6.63528,2.926613 -9.64357,10.679355 -6.71869,17.318108 2.9266,6.635276 10.67588,9.640094 17.31463,6.718695 23.58494,-10.399554 48.52372,-16.398762 74.30015,-17.921156 V 242.84067 H 170.2202 c -2.19671,-26.95125 -10.88965,-52.90147 -25.51055,-75.73913 -13.65984,-21.33786 -31.93032,-39.1756 -53.386344,-52.288 8.218492,-9.56536 17.312884,-18.498135 27.255384,-26.655807 5.60644,-4.600203 6.425,-12.874314 1.82304,-18.482497 -4.6002,-5.611657 -12.87778,-6.42499 -18.48075,-1.824787 C 45.291728,114.31129 12.813969,182.87988 12.813969,255.97393 c 0,54.1128 17.778653,104.14673 47.79207,144.58578 0.502256,0.82897 1.068805,1.59713 1.71704,2.27491 28.551856,37.54893 67.753521,66.57001 113.069081,82.53081 l 25.45666,7.43818 c 17.71782,4.12228 36.17252,6.30508 55.12772,6.30508 19.38099,0 38.40048,-2.30445 56.7596,-6.68219 m 3.72951,-28.11739 c -0.16162,0.047 -0.32324,0.0817 -0.48314,0.13557 -15.13009,4.33256 -30.83369,7.03846 -46.87619,7.99777 V 269.10893 h 72.63352 c 2.13239,27.06247 10.81839,53.13087 25.47577,76.06585 13.62162,21.31526 31.83822,39.14257 53.23169,52.2515 -27.63599,32.16147 -63.76331,55.26503 -103.98165,66.88283 z M 472.51806,242.84067 h -104.4248 c 4.13444,-44.85677 29.30956,-84.44772 68.33743,-107.28016 20.81302,31.1587 33.72209,67.91861 36.08737,107.28016 z m -34.55975,131.25961 c -0.49878,0.76642 -1.02188,1.51198 -1.52935,2.27143 -38.44916,-22.64649 -64.04659,-62.91695 -68.30964,-107.26452 h 104.35876 c -0.47791,7.87787 -1.33469,15.75575 -2.65898,23.54324 -4.93561,29.09408 -15.65667,56.50065 -31.86079,81.44985 z M 269.10806,39.541904 c 4.31693,0.251994 8.62342,0.623903 12.88301,1.119204 55.59521,6.630063 104.2006,34.02969 138.46144,73.870892 -21.39868,13.12631 -39.61703,30.95536 -53.23342,52.26019 -14.65738,22.93151 -23.34512,48.99121 -25.47751,76.05022 H 269.10806 Z M 39.487153,269.10719 H 143.95019 C 139.9513,314.0213 114.85265,353.73391 75.86822,376.68106 54.938765,345.5658 41.868068,308.75375 39.487153,269.10719 Z M 143.84071,242.84067 H 39.480207 c 2.316607,-38.58992 14.803376,-75.35679 35.868376,-106.9656 38.450897,22.57872 64.093507,62.71363 68.492127,106.9656 z M 91.903761,397.66785 c 21.283979,-13.135 39.404999,-30.93623 52.955359,-52.1785 14.69214,-23.03231 23.37292,-49.21541 25.44101,-76.38216 h 72.54488 V 472.43377 C 182.67046,468.82242 129.0269,440.58165 91.903761,397.66785 Z"
       id="path850"
       sodipodi:nodetypes="cccscscccccccccccscccccccccccccccccccccccccccccccccccccccccsccc"
       style="stroke-width:1" />
  </g>
</svg>
