<svg fill="#000000" xmlns="http://www.w3.org/2000/svg"  viewBox="0 0 50 50" width="100px" height="100px"><path d="M 5 7 C 2.25 7 0 9.25 0 12 L 0 38 C 0 40.75 2.25 43 5 43 L 45 43 C 47.75 43 50 40.75 50 38 L 50 12 C 50 9.25 47.75 7 45 7 Z M 5 9 L 45 9 C 46.667969 9 48 10.332031 48 12 L 48 38 C 48 39.667969 46.667969 41 45 41 L 5 41 C 3.332031 41 2 39.667969 2 38 L 2 12 C 2 10.332031 3.332031 9 5 9 Z M 11 15 C 8.25 15 6 17.25 6 20 L 6 34 C 6 34.550781 6.449219 35 7 35 L 15 35 C 16.125 35 17.160156 34.632813 18 34 C 18 34.550781 18.449219 35 19 35 L 27 35 C 28.125 35 29.160156 34.632813 30 34 C 30 34.550781 30.449219 35 31 35 L 39 35 C 41.75 35 44 32.75 44 30 L 44 16 C 44 15.449219 43.550781 15 43 15 L 35 15 C 33.875 15 32.839844 15.367188 32 16 C 32 15.449219 31.550781 15 31 15 L 23 15 C 21.875 15 20.839844 15.367188 20 16 C 20 15.449219 19.550781 15 19 15 Z M 11 17 L 18 17 L 18 30 C 18 31.667969 16.667969 33 15 33 L 8 33 L 8 20 C 8 18.332031 9.332031 17 11 17 Z M 23 17 L 30 17 L 30 30 C 30 31.667969 28.667969 33 27 33 L 20 33 L 20 20 C 20 18.332031 21.332031 17 23 17 Z M 35 17 L 42 17 L 42 30 C 42 31.667969 40.667969 33 39 33 L 32 33 L 32 20 C 32 18.332031 33.332031 17 35 17 Z M 23.78125 21 C 22.160156 21 20.8125 22.582031 20.8125 24.5 C 20.8125 26.417969 22.160156 28.03125 23.78125 28.03125 L 28.96875 28.03125 L 28.96875 26.8125 C 27.726563 27.132813 26.535156 27.25 25.9375 27.25 C 24.636719 27.25 23.625 26.035156 23.625 24.5 C 23.625 22.964844 24.640625 21.75 25.9375 21.75 C 26.535156 21.75 27.726563 21.957031 28.96875 22.28125 L 28.96875 21 Z M 33.0625 21 L 33.0625 27.96875 L 39.78125 27.96875 C 40.691406 27.96875 41.375 27.0625 41.375 26.15625 C 41.375 25.25 40.691406 24.5 39.78125 24.5 C 40.582031 24.5 41.125 23.59375 41.125 22.6875 C 41.125 21.78125 40.425781 21 39.625 21 Z M 13.90625 21.03125 L 13.90625 25 C 13.90625 26.152344 13.085938 27.0625 11.96875 27.0625 C 10.957031 27.0625 10.066406 26.3125 9.90625 25.28125 L 8.59375 25.28125 C 8.964844 26.980469 10.71875 28.3125 12.6875 28.3125 C 14.492188 28.3125 16.9375 27.1875 16.9375 25 L 16.9375 21.03125 Z M 35.625 21.71875 L 37.6875 21.71875 C 38.21875 21.71875 38.71875 22.238281 38.71875 22.84375 C 38.71875 23.449219 38.21875 24 37.6875 24 L 35.625 24 Z M 35.625 24.9375 L 37.75 24.9375 C 38.285156 24.9375 38.75 25.488281 38.75 26.09375 C 38.75 26.695313 38.285156 27.25 37.75 27.25 L 35.625 27.25 Z"/></svg>